<svg width="24" height="24" viewBox="0 0 24 24" fill="none" xmlns="http://www.w3.org/2000/svg">
<path d="M10.2496 3.70745C10.6402 3.56959 10.8451 3.14119 10.7072 2.75059C10.5694 2.35999 10.141 2.1551 9.75039 2.29296L9.04548 2.54175C7.79202 2.98414 6.79178 3.33715 6.01712 3.71299C5.21659 4.10137 4.58919 4.54467 4.12239 5.20444C3.65559 5.86422 3.44637 6.60339 3.34656 7.48754C3.24998 8.34313 3.24999 9.40382 3.25 10.7331V13.2673C3.24999 14.5966 3.24998 15.6573 3.34656 16.5129C3.44637 17.397 3.65559 18.1362 4.12239 18.796C4.58919 19.4557 5.21659 19.899 6.01712 20.2874C6.79179 20.6633 7.79203 21.0163 9.04552 21.4587L9.75039 21.7074C10.141 21.8453 10.5694 21.6404 10.7072 21.2498C10.8451 20.8592 10.6402 20.4308 10.2496 20.293L9.58706 20.0591C8.2816 19.5984 7.36155 19.2725 6.67187 18.9379C5.99935 18.6116 5.61474 18.3082 5.3469 17.9296C5.07906 17.551 4.92095 17.0874 4.8371 16.3446C4.75111 15.5829 4.75 14.6068 4.75 13.2224V10.778C4.75 9.39359 4.75111 8.41753 4.8371 7.65581C4.92095 6.91303 5.07906 6.44937 5.3469 6.0708C5.61474 5.69224 5.99935 5.38882 6.67187 5.06254C7.36155 4.72794 8.2816 4.40204 9.58706 3.94129L10.2496 3.70745Z" fill="#fff"/>
<path d="M13.0227 10.0381C13.3198 9.74935 13.3265 9.27453 13.0378 8.9775C12.7491 8.68048 12.2743 8.67373 11.9773 8.96243C11.886 9.05114 11.7042 9.19676 11.4328 9.40995L11.3728 9.457C11.1307 9.64707 10.8466 9.87005 10.5755 10.0998C10.285 10.346 9.98316 10.6216 9.74854 10.897C9.63096 11.0351 9.51499 11.1907 9.42541 11.3581C9.33902 11.5195 9.25 11.742 9.25 12.0002C9.25 12.2585 9.33902 12.481 9.42541 12.6424C9.51499 12.8098 9.63096 12.9654 9.74854 13.1035C9.98316 13.3789 10.285 13.6545 10.5755 13.9007C10.8466 14.1304 11.1307 14.3534 11.3728 14.5435L11.4328 14.5905C11.7042 14.8037 11.886 14.9494 11.9773 15.0381C12.2743 15.3268 12.7491 15.32 13.0378 15.023C13.3265 14.726 13.3198 14.2511 13.0227 13.9624C12.8612 13.8054 12.604 13.6031 12.3593 13.4109L12.3024 13.3662C12.0566 13.1733 11.7939 12.967 11.5452 12.7563L11.5381 12.7502H20C20.4142 12.7502 20.75 12.4145 20.75 12.0002C20.75 11.586 20.4142 11.2502 20 11.2502H11.5381L11.5452 11.2442C11.7939 11.0335 12.0566 10.8272 12.3023 10.6343L12.3593 10.5896C12.604 10.3973 12.8612 10.1951 13.0227 10.0381Z" fill="#fff"/>
</svg>
