<svg xmlns="http://www.w3.org/2000/svg" height="169.928" width="645.691"><defs><clipPath id="a" clipPathUnits="userSpaceOnUse"><path d="M0 127.446h484.268V0H0z"/></clipPath></defs><g clip-path="url(#a)" transform="matrix(1.33333 0 0 -1.33333 0 169.928)"><path d="M468.726 119.649h-86.422c-7.768 0-15.543 13.503-15.543 4.97V-.964h17.767s.177 46.843 41.334 69.359c41.126-22.516 41.334-69.36 41.334-69.36h17.073V124.62c0 8.513-7.772-4.97-15.543-4.97" fill="#889547"/><path d="M157.287 69.534c0-2.5-1.42-3.074-3.148-1.26l-26.867 31.56c-1.724 1.808-1.089 3.288 1.407 3.288h24.053c2.496 0 4.555-2.05 4.555-4.536zM0 82.306c0 2.732 1.553 3.354 3.444 1.379l29.298-34.424c1.887-1.964 1.193-3.581-1.548-3.581H4.966C2.239 45.68 0 47.909 0 50.645zm192.148-13.034c0-2.202 1.247-2.713 2.783-1.106l23.732 31.822c1.526 1.606.981 2.914-1.236 2.914H196.17a4.03 4.03 0 01-4.022-4.023zm142.305.09c0-2.218-1.26-2.734-2.796-1.126l-23.843 31.96c-1.535 1.617-.969 2.927 1.24 2.927h21.354c2.218 0 4.045-1.814 4.045-4.032z" fill="#fcb24c"/><path d="M334.008 49.738c0-2.044-1.411-4.938-4.92-4.938h-17.491a4.936 4.936 0 00-4.928 4.938v4.915c0 2.724 2.214 4.939 4.928 4.939l4.358-.011c2.71 0 3.388 2.192 1.557 4.29l-10.144 13.002c-1.972 2.45-4.567 1.618-4.567-1.094V49.738c0-2.73-2.231-4.938-4.945-4.938h-25.821c-2.711 0-4.95 2.208-4.95 4.938V116.9c0 2.718 2.239 4.948 4.95 4.948h4.933c2.71 0 4.933-2.23 4.933-4.948V62.755c0-2.724 1.363-3.163 3.044-3.163 1.682 0 3.045.439 3.045 3.163V99.12c0 2.72 2.145 3.838 4.178 3.838h6.048c1.946 0 2.616-.926 2.616-.926l31.61-43.793s1.566-1.902 1.566-4.434zm-74.652 0a4.933 4.933 0 00-4.932-4.938h-25.82a4.948 4.948 0 00-4.936 4.938V77.24c0 2.732-2.197 3.65-4.32 1.825l-10.027-15.17c-2.299-2.5-.983-4.304 1.741-4.304h3.238a4.944 4.944 0 004.946-4.94v-4.914A4.94 4.94 0 00214.3 44.8h-17.18c-2.725 0-4.934 1.666-4.934 3.7v6.972c0 1.379 1.111 2.29 1.111 2.29l32.253 44.259s.841.972 2.531.972h6.682c2.041 0 3.705-.221 3.705-2.928v-37.31c0-2.724 1.373-3.163 3.055-3.163 1.673 0 3.045.439 3.045 3.163v35.309a4.947 4.947 0 004.941 4.944h4.915c2.724 0 4.932-2.22 4.932-4.944zm-201.531.735c0-2.709-1.656-4.935-3.702-4.935-1.334 0-4.7.039-7.61 0-1.658-.014-4.412.549-6.256 2.378L1.394 92.091c-1.758 2.121-.656 4.497 1.475 4.497h6.37c2.706 0 3.01-.151 4.863-2.376l23.612-29.107c2.174-2.805 5.305-2.213 5.305 1.3v31.659c0 2.723 2.235 4.943 4.94 4.943h4.933c2.715 0 4.933-2.22 4.933-4.943zm297.923-.883a4.944 4.944 0 00-4.937-4.94H345.9c-2.727 0-4.949 2.216-4.949 4.94v55.57c0 2.708 2.222 4.921 4.949 4.921h4.911c2.724 0 4.937-2.213 4.937-4.92zm-278.872 0c0-2.724-2.23-4.94-4.933-4.94h-4.935c-2.708 0-4.92 2.216-4.92 4.94v65.574c0 2.706 2.212 4.94 4.92 4.94h4.935c2.704 0 4.934-2.234 4.934-4.94zm97.85 53.417h-4.924c-2.715 0-4.932-2.22-4.932-4.943V64.541c0-2.723-.939-4.95-4.94-4.95h-3.99l-36.79 41.58s-1.717 1.786-4.539 1.786h-8.449c-2.042 0-4.04-.848-4.04-3.557V82.083c0-2.716 2.217-4.929 4.936-4.929h4.928a4.938 4.938 0 014.933 4.93v.385c0 2.727 1.891 3.772 4.203 2.338l20.57-25.216H97.095v38.473a4.947 4.947 0 01-4.94 4.943h-4.917a4.951 4.951 0 01-4.945-4.943V48.72c0-8.529-1.908-10.339-3.538-12.104-.905-.965-1.587-2.029-.069-4.205l5.422-7.075c1.355-1.645 3.242-1.842 5.146-.448 0 0 7.824 6.626 7.841 19.912h77.631c2.72 0 4.95 2.208 4.95 4.938v48.327c0 2.723-2.23 4.943-4.95 4.943" fill="#924346"/><path d="M259.485 111.675c0-2.71-2.222-4.926-4.933-4.926h-4.743c-2.71 0-4.94 2.215-4.94 4.926v3.88c0 2.713 2.23 4.92 4.94 4.92h4.743c2.711 0 4.933-2.207 4.933-4.92zm-20.917 0c0-2.71-2.235-4.926-4.937-4.926h-4.752c-2.707 0-4.933 2.215-4.933 4.926v3.88c0 2.713 2.226 4.92 4.933 4.92h4.752c2.702 0 4.937-2.207 4.937-4.92zm-17.872 0c0-2.71-2.23-4.926-4.95-4.926h-4.736c-2.71 0-4.932 2.215-4.932 4.926v3.88c0 2.713 2.222 4.92 4.932 4.92h4.736c2.72 0 4.95-2.207 4.95-4.92zm-40.48 0c0-2.71-2.23-4.926-4.941-4.926h-4.752c-2.702 0-4.924 2.215-4.924 4.926v3.88c0 2.713 2.222 4.92 4.924 4.92h4.752c2.71 0 4.94-2.207 4.94-4.92zm-19.228-81.009c0-2.72-2.217-4.937-4.928-4.937h-4.744c-2.71 0-4.936 2.217-4.936 4.937v3.877c0 2.72 2.226 4.935 4.936 4.935h4.744c2.711 0 4.928-2.215 4.928-4.935zM57.902 111.675c0-2.71-2.227-4.926-4.941-4.926h-4.748c-2.711 0-4.932 2.215-4.932 4.926v3.88c0 2.713 2.22 4.92 4.932 4.92h4.748c2.714 0 4.94-2.207 4.94-4.92zm288.904 9.699c-.558 0-1.025.475-1.025 1.03 0 .566.467 1.021 1.025 1.021h8.797c-.446 2.28-2.453 4.02-4.847 4.02h-4.752c-2.711 0-4.932-2.217-4.932-4.929v-3.48h4.546c.566 0 1.03-.469 1.03-1.026a1.03 1.03 0 00-1.03-1.028h-4.247c.683-1.902 2.497-3.28 4.633-3.28h4.752c2.715 0 4.924 2.226 4.924 4.943v2.73z" fill="#fcb24c"/><path d="M0 0v16.07h3.367l4.147-6.894a46.518 46.518 0 002.736-5.38h.056c-.219 2.148-.27 4.22-.27 6.675v5.6h2.728V0H9.71L5.507 7.082C4.486 8.848 3.44 10.8 2.659 12.61l-.103-.017c.12-2.075.163-4.193.163-6.847V0zm30.452 6.77l-1.257 3.959a51.615 51.615 0 00-.806 3.009h-.047c-.245-.933-.506-2.05-.777-3.01l-1.23-3.958zM25.85 4.563L24.47 0h-3.016l5.143 16.07h3.735L35.556 0H32.4l-1.458 4.563zM47.895 16.07h2.921V5.654c0-4.435-2.131-5.91-5.31-5.91-.823 0-1.831.14-2.479.373l.361 2.363a5.782 5.782 0 011.81-.283c1.672 0 2.697.762 2.697 3.55zm15.548-7.314h1.741c1.973 0 3.191 1.046 3.191 2.635 0 1.742-1.218 2.587-3.122 2.587-.923 0-1.527-.077-1.81-.153zM60.54 15.83c1.124.213 2.741.363 4.43.363 2.317 0 3.87-.384 4.954-1.295.88-.732 1.386-1.865 1.386-3.243 0-2.06-1.399-3.474-2.934-4.002v-.077c1.175-.416 1.866-1.546 2.24-3.096.522-2 .96-3.859 1.265-4.48h-3.003c-.236.478-.639 1.79-1.064 3.795-.485 2.094-1.214 2.76-2.895 2.812h-1.475V0H60.54zm28.041-9.06l-1.274 3.959c-.29.982-.558 2.076-.802 3.009h-.05c-.224-.933-.495-2.05-.756-3.01L84.451 6.77zm-4.594-2.207L82.598 0H79.57l5.146 16.07h3.75L93.685 0h-3.17l-1.467 4.563zM102.396 0v16.07h3.354l4.152-6.894c1.042-1.786 2.003-3.644 2.744-5.38h.044c-.215 2.148-.258 4.22-.258 6.675v5.6h2.711V0h-3.041l-4.199 7.082c-1.021 1.765-2.072 3.716-2.869 5.526l-.09-.017c.111-2.075.162-4.193.162-6.847V0zm47.141 6.555c-.1 2.072-.22 4.583-.193 6.745h-.06a89.213 89.213 0 00-1.913-6.14L145.01.2h-2.242l-2.15 6.851a79.81 79.81 0 00-1.611 6.249h-.056a398.229 398.229 0 00-.28-6.828L138.322 0h-2.75l1.06 16.071h3.873l2.093-6.459a77.708 77.708 0 001.488-5.577h.065a82.744 82.744 0 001.6 5.602l2.213 6.434h3.808L152.706 0h-2.864zm15.565 9.515V6.696c0-3.133 1.3-4.596 3.285-4.596 2.115 0 3.38 1.463 3.38 4.596v9.376h2.925V6.883c0-4.953-2.543-7.14-6.407-7.14-3.715 0-6.125 2.082-6.125 7.133v9.195zM184.54 0v16.07h3.345l4.151-6.894c1.047-1.786 2.008-3.644 2.754-5.38h.03c-.202 2.148-.254 4.22-.254 6.675v5.6h2.716V0h-3.04l-4.204 7.082c-1.02 1.765-2.072 3.716-2.865 5.526l-.09-.017c.12-2.075.167-4.193.167-6.847V0zm25.562 0h-2.942v16.07h2.942zm21.364.453c-.695-.338-2.222-.71-4.17-.71-5.1 0-8.195 3.19-8.195 8.098 0 5.293 3.679 8.483 8.59 8.483 1.93 0 3.29-.401 3.89-.712l-.617-2.33c-.764.338-1.836.619-3.148.619-3.273 0-5.62-2.048-5.62-5.91 0-3.547 2.05-5.795 5.603-5.795 1.166 0 2.4.247 3.182.575zM243.393 0h-2.925v16.07h2.925zm12.76 8.4c.373-.135.836-.144 1.428-.144 2.196 0 3.534 1.092 3.534 2.956 0 1.78-1.239 2.71-3.269 2.71-.814 0-1.384-.068-1.693-.137zm-2.908 7.459c1.068.185 2.53.334 4.473.334 2.158 0 3.702-.461 4.727-1.325.956-.781 1.578-2.046 1.578-3.54 0-1.526-.472-2.763-1.368-3.624-1.184-1.176-2.998-1.738-5.074-1.738-.549 0-1.02.02-1.428.116V0h-2.908zm25.94-9.089l-1.261 3.959a52.422 52.422 0 00-.806 3.009h-.056c-.24-.933-.497-2.05-.763-3.01l-1.235-3.958zm-4.602-2.207L273.206 0h-3.023l5.147 16.07h3.73L284.287 0h-3.166l-1.458 4.563zm18.442 11.507h2.935V2.459h6.595V0h-9.53zM314.205 0h-2.934v16.07h2.934zm12.927 13.62h-4.58v2.45h12.129v-2.45h-4.62V0h-2.93zM347.094 0v6.694l-5.08 9.376h3.363l1.913-4.132a90.808 90.808 0 001.395-3.182h.047c.382 1.024.84 2.02 1.38 3.182l1.93 4.132h3.32l-5.335-9.3V0z" fill="#889547"/><path d="M472.19 92.598a.904.904 0 00-.901-.897h-11.987a.9.9 0 00-.898.897v11.985c0 .495.403.894.897.894h11.987a.899.899 0 00.901-.894z" fill="#fcb24c"/><path d="M391.913 92.598a.903.903 0 00-.906-.897h-11.975a.894.894 0 00-.897.897v11.985c0 .495.392.894.897.894h11.975a.898.898 0 00.906-.894zM475.598-.965h-4.44v52.84a.507.507 0 01-.496.5h-4.785c-12.167 0-26.312 16.015-26.312 36.668 0 .147-.254.502-.488.502h-2.006c-2.724 0-4.94 2.203-4.94 4.927v10.918a.495.495 0 01-.487.495H420.08a.505.505 0 01-.493-.496V94.471a4.933 4.933 0 00-4.935-4.926h-1.998c-.245 0-.501-.355-.501-.503 0-20.653-14.141-36.668-26.306-36.668h-4.792a.511.511 0 01-.496-.499V-.965h-4.432v52.84a4.936 4.936 0 004.928 4.933h4.792c9.84 0 21.869 14.873 21.869 32.234 0 2.622 2.305 4.933 4.938 4.933h1.998c.267 0 .494.234.494.496v10.918a4.94 4.94 0 004.934 4.931h11.563a4.938 4.938 0 004.928-4.93V94.47c0-.269.226-.496.499-.496h2.006c2.623 0 4.922-2.31 4.922-4.932 0-17.362 12.032-32.235 21.878-32.235h4.785a4.937 4.937 0 004.936-4.933z" fill="#fbb24c"/><path d="M436.225 23.733l7.634-9.927 10.133 10.765a76.362 76.362 0 01-7.502 13.907z" fill="#fbb24c"/><path d="M443.398 42.721c-4.07 5.218-9.18 10.464-15.62 15.458V20.281zm-10.157-23.275l-5.463-7.847V-.964h21.1zm13.701-9.653L454.98-.965h4.153s.6 8.501-3.216 20.29z" fill="#924346"/></g></svg>