<svg xmlns="http://www.w3.org/2000/svg" xmlns:xlink="http://www.w3.org/1999/xlink" version="1.1" width="355.749pt" height="122.824pt" viewBox="0 0 355.749 122.824">
<defs>
<clipPath id="clip_0">
<path transform="matrix(1,0,0,-1,0,122.824)" d="M0 122.824H355.749V0H0Z"/>
</clipPath>
</defs>
<g id="layer_1" data-name="">
<g clip-path="url(#clip_0)">
<path transform="matrix(1,0,0,-1,325.39,18.948197)" d="M0 0H-66.127C-72.072 0-78.02 10.332-78.02 3.802V-92.29H-64.426C-64.426-92.29-64.291-56.447-32.798-39.218-1.33-56.447-1.17-92.29-1.17-92.29H11.893V3.802C11.893 10.317 5.947 0 0 0" fill="#84923a"/>
<path transform="matrix(1,0,0,-1,114.4997,67.233699)" d="M0 0C0-1.582-.899-1.946-1.993-.797L-19.002 19.183C-20.094 20.329-19.692 21.266-18.112 21.266H-2.884C-1.304 21.266 0 19.968 0 18.393Z" fill="#fbb040"/>
<path transform="matrix(1,0,0,-1,14.9206,59.147298)" d="M0 0C0 1.73 .983 2.124 2.18 .873L20.729-20.921C21.924-22.164 21.484-23.188 19.749-23.188H3.144C1.417-23.188 0-21.777 0-20.045Z" fill="#fbb040"/>
<path transform="matrix(1,0,0,-1,136.5705,67.3995)" d="M0 0C0-1.394 .79-1.718 1.762-.7L16.787 19.446C17.753 20.463 17.408 21.291 16.004 21.291H2.547C1.14 21.291 0 20.144 0 18.744Z" fill="#fbb040"/>
<path transform="matrix(1,0,0,-1,226.6645,67.3425)" d="M0 0C0-1.404-.798-1.731-1.77-.713L-16.865 19.521C-17.837 20.545-17.479 21.374-16.081 21.374H-2.561C-1.157 21.374 0 20.226 0 18.822Z" fill="#fbb040"/>
<path transform="matrix(1,0,0,-1,226.3823,79.7666)" d="M0 0C0-1.294-.893-3.127-3.115-3.127H-14.188C-15.907-3.127-17.308-1.728-17.308 0V3.112C-17.308 4.836-15.907 6.238-14.188 6.238L-11.429 6.232C-9.713 6.232-9.284 7.619-10.444 8.948L-16.866 17.179C-18.115 18.731-19.757 18.204-19.757 16.487V0C-19.757-1.728-21.169-3.127-22.888-3.127H-39.235C-40.951-3.127-42.368-1.728-42.368 0V42.522C-42.368 44.242-40.951 45.654-39.235 45.654H-36.112C-34.396 45.654-32.99 44.242-32.99 42.522V8.241C-32.99 6.517-32.126 6.238-31.061 6.238-29.997 6.238-29.134 6.517-29.134 8.241V31.264C-29.134 32.986-27.776 33.694-26.489 33.694H-22.66C-21.427 33.694-21.004 33.107-21.004 33.107L-.991 5.382C-.991 5.382 0 4.178 0 2.575Z" fill="#8e3438"/>
<path transform="matrix(1,0,0,-1,179.1207,79.7666)" d="M0 0C0-1.728-1.398-3.127-3.123-3.127H-19.47C-21.183-3.127-22.595-1.728-22.595 0V17.412C-22.595 19.142-23.985 19.723-25.329 18.568L-31.678 8.963C-33.133 7.382-32.3 6.238-30.575 6.238H-28.525C-26.795 6.238-25.394 4.836-25.394 3.112V0C-25.394-1.728-26.795-3.127-28.525-3.127H-39.403C-41.127-3.127-42.526-2.072-42.526-.784V3.63C-42.526 4.503-41.823 5.08-41.823 5.08L-21.403 33.101C-21.403 33.101-20.871 33.716-19.801 33.716H-15.57C-14.278 33.716-13.224 33.576-13.224 31.862V8.241C-13.224 6.517-12.355 6.238-11.29 6.238-10.232 6.238-9.363 6.517-9.363 8.241V30.596C-9.363 32.32-7.962 33.725-6.235 33.725H-3.123C-1.398 33.725 0 32.32 0 30.596Z" fill="#8e3438"/>
<path transform="matrix(1,0,0,-1,51.5296,79.3011)" d="M0 0C0-1.715-1.048-3.124-2.343-3.124-3.188-3.124-5.32-3.1-7.161-3.124-8.211-3.133-9.955-2.776-11.122-1.618L-35.727 26.349C-36.84 27.692-36.142 29.196-34.792 29.196H-30.76C-29.047 29.196-28.854 29.1-27.681 27.692L-12.732 9.264C-11.356 7.488-9.374 7.863-9.374 10.087V30.13C-9.374 31.854-7.959 33.26-6.245 33.26H-3.123C-1.404 33.26 0 31.854 0 30.13Z" fill="#8e3438"/>
<path transform="matrix(1,0,0,-1,240.1466,79.8603)" d="M0 0C0-1.724-1.401-3.128-3.126-3.128H-6.235C-7.962-3.128-9.368-1.724-9.368 0V35.182C-9.368 36.897-7.962 38.298-6.235 38.298H-3.126C-1.401 38.298 0 36.897 0 35.182Z" fill="#8e3438"/>
<path transform="matrix(1,0,0,-1,63.5914,79.8603)" d="M0 0C0-1.724-1.412-3.128-3.123-3.128H-6.248C-7.962-3.128-9.363-1.724-9.363 0V41.516C-9.363 43.229-7.962 44.642-6.248 44.642H-3.123C-1.412 44.642 0 43.229 0 41.516Z" fill="#8e3438"/>
<path transform="matrix(1,0,0,-1,125.5405,46.041299)" d="M0 0H-3.117C-4.836 0-6.24-1.405-6.24-3.13V-24.353C-6.24-26.077-6.835-27.487-9.368-27.487H-11.78-11.894L-35.186-1.162C-35.186-1.162-36.273-.031-38.059-.031H-43.409C-44.701-.031-45.966-.569-45.966-2.284V-13.247C-45.966-14.966-44.563-16.367-42.841-16.367H-39.721C-37.999-16.367-36.598-14.966-36.598-13.247V-13.003C-36.598-11.276-35.401-10.615-33.937-11.523L-20.914-27.487H-49.149V-3.13C-49.149-1.405-50.55 0-52.277 0H-55.389C-57.116 0-58.52-1.405-58.52-3.13V-34.37C-58.52-39.77-59.728-40.916-60.76-42.033-61.333-42.644-61.764-43.317-60.803-44.695L-57.371-49.175C-56.513-50.216-55.318-50.341-54.113-49.458-54.113-49.458-49.16-45.263-49.149-36.852H0C1.721-36.852 3.133-35.454 3.133-33.725V-3.13C3.133-1.405 1.721 0 0 0" fill="#8e3438"/>
<path transform="matrix(1,0,0,-1,179.2021,40.553598)" d="M0 0C0-1.716-1.407-3.119-3.123-3.119H-6.126C-7.842-3.119-9.254-1.716-9.254 0V2.456C-9.254 4.174-7.842 5.571-6.126 5.571H-3.123C-1.407 5.571 0 4.174 0 2.456Z" fill="#fbb040"/>
<path transform="matrix(1,0,0,-1,165.9591,40.553598)" d="M0 0C0-1.716-1.415-3.119-3.125-3.119H-6.134C-7.848-3.119-9.257-1.716-9.257 0V2.456C-9.257 4.174-7.848 5.571-6.134 5.571H-3.125C-1.415 5.571 0 4.174 0 2.456Z" fill="#fbb040"/>
<path transform="matrix(1,0,0,-1,154.6441,40.553598)" d="M0 0C0-1.716-1.412-3.119-3.134-3.119H-6.131C-7.848-3.119-9.254-1.716-9.254 0V2.456C-9.254 4.174-7.848 5.571-6.131 5.571H-3.134C-1.412 5.571 0 4.174 0 2.456Z" fill="#fbb040"/>
<path transform="matrix(1,0,0,-1,129.0162,40.553598)" d="M0 0C0-1.716-1.412-3.119-3.128-3.119H-6.137C-7.848-3.119-9.254-1.716-9.254 0V2.456C-9.254 4.174-7.848 5.571-6.137 5.571H-3.128C-1.412 5.571 0 4.174 0 2.456Z" fill="#fbb040"/>
<path transform="matrix(1,0,0,-1,116.8429,91.8407)" d="M0 0C0-1.722-1.404-3.125-3.12-3.125H-6.123C-7.839-3.125-9.248-1.722-9.248 0V2.455C-9.248 4.176-7.839 5.579-6.123 5.579H-3.12C-1.404 5.579 0 4.176 0 2.455Z" fill="#fbb040"/>
<path transform="matrix(1,0,0,-1,51.5785,40.553598)" d="M0 0C0-1.716-1.409-3.119-3.128-3.119H-6.134C-7.85-3.119-9.257-1.716-9.257 0V2.456C-9.257 4.174-7.85 5.571-6.134 5.571H-3.128C-1.409 5.571 0 4.174 0 2.456Z" fill="#fbb040"/>
<path transform="matrix(1,0,0,-1,234.4848,34.412698)" d="M0 0C-.353 0-.649 .3-.649 .652-.649 1.01-.353 1.298 0 1.298H5.569C5.287 2.741 4.016 3.844 2.501 3.844H-.508C-2.224 3.844-3.63 2.44-3.63 .722V-1.481H-.752C-.394-1.481-.1-1.777-.1-2.13-.1-2.49-.394-2.781-.752-2.781H-3.44C-3.009-3.985-1.86-4.858-.508-4.858H2.501C4.22-4.858 5.618-3.448 5.618-1.728V0Z" fill="#fbb040"/>
<path transform="matrix(1,0,0,-1,14.9206,111.2557)" d="M0 0V10.174H2.132L4.757 5.809C5.425 4.679 6.023 3.503 6.49 2.403H6.525C6.386 3.764 6.354 5.075 6.354 6.629V10.174H8.081V0H6.148L3.487 4.484C2.84 5.602 2.178 6.837 1.683 7.983L1.618 7.972C1.694 6.658 1.721 5.318 1.721 3.637V0Z" fill="#84923a"/>
<path transform="matrix(1,0,0,-1,34.1999,106.9694)" d="M0 0-.796 2.506C-.988 3.128-1.162 3.82-1.306 4.411H-1.336C-1.491 3.82-1.656 3.113-1.828 2.506L-2.607 0ZM-2.914-1.397-3.788-4.286H-5.697L-2.441 5.888H-.076L3.231-4.286H1.233L.309-1.397Z" fill="#84923a"/>
<path transform="matrix(1,0,0,-1,45.2432,101.0813)" d="M0 0H1.849V-6.596C1.849-9.403 .5-10.337-1.512-10.337-2.034-10.337-2.672-10.249-3.082-10.101L-2.854-8.605C-2.552-8.708-2.142-8.784-1.708-8.784-.649-8.784 0-8.302 0-6.537Z" fill="#84923a"/>
<path transform="matrix(1,0,0,-1,55.0867,105.712398)" d="M0 0H1.102C2.352 0 3.123 .663 3.123 1.669 3.123 2.771 2.352 3.306 1.146 3.306 .562 3.306 .179 3.257 0 3.21ZM-1.839 4.479C-1.127 4.614-.103 4.709 .967 4.709 2.433 4.709 3.416 4.466 4.103 3.888 4.66 3.425 4.98 2.709 4.98 1.836 4.98 .531 4.095-.364 3.123-.698V-.747C3.867-1.01 4.304-1.726 4.54-2.707 4.871-3.974 5.148-5.15 5.341-5.543H3.44C3.291-5.241 3.036-4.41 2.767-3.14 2.46-1.815 1.998-1.393 .934-1.36H0V-5.543H-1.839Z" fill="#84923a"/>
<path transform="matrix(1,0,0,-1,71.0016,106.9694)" d="M0 0-.806 2.506C-.991 3.128-1.16 3.82-1.314 4.411H-1.347C-1.488 3.82-1.659 3.113-1.825 2.506L-2.615 0ZM-2.908-1.397-3.788-4.286H-5.705L-2.447 5.888H-.073L3.231-4.286H1.225L.296-1.397Z" fill="#84923a"/>
<path transform="matrix(1,0,0,-1,79.7479,111.2557)" d="M0 0V10.174H2.124L4.752 5.809C5.412 4.679 6.02 3.503 6.49 2.403H6.517C6.381 3.764 6.354 5.075 6.354 6.629V10.174H8.07V0H6.145L3.487 4.484C2.84 5.602 2.175 6.837 1.67 7.983L1.613 7.972C1.684 6.658 1.716 5.318 1.716 3.637V0Z" fill="#84923a"/>
<path transform="matrix(1,0,0,-1,109.5928,107.1054)" d="M0 0C-.062 1.312-.138 2.902-.122 4.27H-.16C-.497 3.039-.918 1.659-1.371 .383L-2.865-4.024H-4.285L-5.645 .314C-6.036 1.622-6.4 3.006-6.666 4.27H-6.701C-6.745 2.948-6.807 1.329-6.878-.053L-7.101-4.15H-8.841L-8.171 6.024H-5.719L-4.394 1.935C-4.03 .744-3.706-.464-3.451-1.595H-3.41C-3.136-.491-2.789 .751-2.398 1.951L-.997 6.024H1.415L2.007-4.15H.193Z" fill="#84923a"/>
<path transform="matrix(1,0,0,-1,119.4472,101.0813)" d="M0 0V-5.936C0-7.919 .823-8.845 2.08-8.845 3.419-8.845 4.22-7.919 4.22-5.936V0H6.072V-5.816C6.072-8.953 4.461-10.337 2.015-10.337-.337-10.337-1.863-9.019-1.863-5.822V0Z" fill="#84923a"/>
<path transform="matrix(1,0,0,-1,131.7531,111.2557)" d="M0 0V10.174H2.118L4.747 5.809C5.409 4.679 6.017 3.503 6.49 2.403H6.509C6.381 3.764 6.349 5.075 6.349 6.629V10.174H8.068V0H6.142L3.481 4.484C2.835 5.602 2.17 6.837 1.667 7.983L1.61 7.972C1.686 6.658 1.716 5.318 1.716 3.637V0Z" fill="#84923a"/>
<path transform="matrix(1,0,0,-1,0,122.824)" d="M147.937 11.568H146.07399V21.742H147.937Z" fill="#84923a"/>
<path transform="matrix(1,0,0,-1,161.4624,110.9693)" d="M0 0C-.44-.213-1.406-.449-2.639-.449-5.868-.449-7.828 1.571-7.828 4.677-7.828 8.028-5.499 10.048-2.39 10.048-1.168 10.048-.307 9.794 .073 9.597L-.318 8.123C-.801 8.336-1.48 8.514-2.311 8.514-4.383 8.514-5.868 7.218-5.868 4.772-5.868 2.527-4.57 1.104-2.322 1.104-1.583 1.104-.801 1.26-.307 1.468Z" fill="#84923a"/>
<path transform="matrix(1,0,0,-1,0,122.824)" d="M169.014 11.568H167.162V21.742H169.014Z" fill="#84923a"/>
<path transform="matrix(1,0,0,-1,177.0922,105.9376)" d="M0 0C.236-.086 .529-.091 .904-.091 2.295-.091 3.142 .6 3.142 1.78 3.142 2.907 2.357 3.496 1.072 3.496 .557 3.496 .195 3.453 0 3.409ZM-1.841 4.722C-1.165 4.839-.239 4.934 .991 4.934 2.357 4.934 3.334 4.642 3.983 4.095 4.589 3.601 4.983 2.799 4.983 1.853 4.983 .888 4.684 .105 4.117-.441 3.367-1.185 2.219-1.541 .904-1.541 .557-1.541 .258-1.528 0-1.468V-5.318H-1.841Z" fill="#84923a"/>
<path transform="matrix(1,0,0,-1,191.6738,106.9694)" d="M0 0-.798 2.506C-.991 3.128-1.165 3.82-1.309 4.411H-1.344C-1.496 3.82-1.659 3.113-1.827 2.506L-2.609 0ZM-2.913-1.397-3.785-4.286H-5.7L-2.441 5.888H-.079L3.229-4.286H1.225L.301-1.397Z" fill="#84923a"/>
<path transform="matrix(1,0,0,-1,200.4365,101.0813)" d="M0 0H1.857V-8.619H6.034V-10.174H0Z" fill="#84923a"/>
<path transform="matrix(1,0,0,-1,0,122.824)" d="M213.845 11.568H211.988V21.742H213.845Z" fill="#84923a"/>
<path transform="matrix(1,0,0,-1,222.0293,102.633197)" d="M0 0H-2.9V1.552H4.779V0H1.855V-8.623H0Z" fill="#84923a"/>
<path transform="matrix(1,0,0,-1,234.667,111.2557)" d="M0 0V4.239L-3.215 10.174H-1.086L.125 7.558C.467 6.809 .722 6.233 1.007 5.543H1.037C1.279 6.192 1.569 6.822 1.912 7.558L3.133 10.174H5.235L1.857 4.286V0Z" fill="#84923a"/>
<path transform="matrix(1,0,0,-1,328.0407,39.646997)" d="M0 0C0-.376-.312-.687-.69-.687H-9.861C-10.239-.687-10.548-.376-10.548 0V9.171C-10.548 9.549-10.239 9.854-9.861 9.854H-.69C-.312 9.854 0 9.549 0 9.171Z" fill="#ffffff"/>
<path transform="matrix(1,0,0,-1,266.6154,39.646997)" d="M0 0C0-.376-.309-.687-.693-.687H-9.856C-10.243-.687-10.543-.376-10.543 0V9.171C-10.543 9.549-10.243 9.854-9.856 9.854H-.693C-.309 9.854 0 9.549 0 9.171Z" fill="#ffffff"/>
<path transform="matrix(1,0,0,-1,330.6483,111.2386)" d="M0 0H-3.396V40.432C-3.396 40.635-3.57 40.813-3.776 40.813H-7.438C-16.748 40.813-27.571 53.067-27.571 68.871-27.571 68.984-27.765 69.256-27.944 69.256H-29.48C-31.564 69.256-33.26 70.941-33.26 73.025V81.379C-33.26 81.588-33.429 81.758-33.632 81.758H-42.479C-42.68 81.758-42.857 81.584-42.857 81.379V73.025C-42.857 70.941-44.553 69.256-46.633 69.256H-48.162C-48.35 69.256-48.546 68.984-48.546 68.871-48.546 53.067-59.366 40.813-68.674 40.813H-72.341C-72.542 40.813-72.72 40.635-72.72 40.432V0H-76.112V40.432C-76.112 42.512-74.42 44.207-72.341 44.207H-68.674C-61.144 44.207-51.94 55.587-51.94 68.871-51.94 70.877-50.177 72.646-48.162 72.646H-46.633C-46.429 72.646-46.255 72.824-46.255 73.025V81.379C-46.255 83.46-44.56 85.153-42.479 85.153H-33.632C-31.557 85.153-29.861 83.46-29.861 81.379V73.025C-29.861 72.819-29.688 72.646-29.48 72.646H-27.944C-25.938 72.646-24.178 70.877-24.178 68.871-24.178 55.587-14.972 44.207-7.438 44.207H-3.776C-1.69 44.207 0 42.512 0 40.432Z" fill="#ffffff"/>
<path transform="matrix(1,0,0,-1,281.4895,111.2528)" d="M0 0C-.181 0-.364 .01-.547 .029-1.237 .199-1.686 .52-1.922 .991-2.449 1.913-2.167 3.11-1.257 3.76-.345 4.287 .751 4.048 1.407 3.302 2.129 3.588 2.944 4.003 3.339 4.694 3.372 4.748 3.391 4.854 3.347 5.01 3.308 5.15 3.24 5.246 3.201 5.282L3.066 5.227C2.651 5.055 2.182 4.861 1.673 4.861 1.475 4.861 1.285 4.893 1.104 4.952 .25 5.377-.25 6.321-.122 7.216 .101 8.225 .91 8.889 1.894 8.889 2.061 8.889 2.232 8.869 2.403 8.832L2.448 8.819C3.07 8.568 3.552 8.319 4.032 7.839 4.401 7.399 4.552 6.922 4.698 6.461 4.771 6.237 4.839 6.02 4.927 5.823L9.214 9.802C2.682 15.918-6.373 17.428-12.854 17.61L-15.516 17.685-12.902 18.195C-8.334 19.086-3.462 18.812 1.395 17.391 5.391 16.22 8.854 13.921 11.457 12.005 16.481 16.331 23.088 18.712 30.09 18.712 31.947 18.712 33.807 18.538 35.617 18.196L38.304 17.688 35.57 17.61C29.089 17.428 20.034 15.918 13.502 9.802L17.789 5.82C17.877 6.02 17.946 6.237 18.017 6.462 18.164 6.923 18.316 7.399 18.667 7.82 19.279 8.554 20.3 8.968 21.218 8.836 21.762 8.702 22.23 8.378 22.532 7.941 22.855 7.474 22.962 6.933 22.832 6.417 22.592 5.452 21.825 4.856 20.831 4.856 20.367 4.856 19.892 4.988 19.447 5.241 19.367 5.095 19.301 4.813 19.367 4.712 19.77 4.006 20.583 3.59 21.305 3.303 21.69 3.753 22.268 4.015 22.89 4.015 23.596 4.015 24.243 3.678 24.619 3.113 24.938 2.667 25.036 2.089 24.881 1.537 24.733 1.009 24.382 .593 23.919 .395 23.437 .191 22.926 .089 22.396 .089 20.661 .089 19 1.167 17.702 2.18 16.904 1.113 15.49 .112 14.113 .112 13.294 .112 12.576 .479 12.038 1.169 11.73 1.632 11.631 2.174 11.757 2.678 11.99 3.612 12.843 4.316 13.74 4.316 13.884 4.316 14.029 4.298 14.17 4.262 14.66 4.14 15.215 4.002 15.504 3.424 15.633 3.235 15.627 2.983 15.622 2.8V2.793C15.747 2.831 15.975 3.01 16.071 3.133 15.308 4.527 14.11 5.469 12.844 6.465 12.349 6.855 11.838 7.256 11.358 7.686 10.868 7.242 10.36 6.828 9.868 6.428 8.645 5.431 7.491 4.493 6.58 3.128 6.598 3.038 6.921 2.81 7.108 2.789 7.141 2.847 7.174 2.985 7.198 3.081 7.28 3.405 7.389 3.848 7.824 4.024 8.6 4.334 9.192 4.362 9.756 4.137 10.594 3.719 11.093 2.775 10.966 1.88 10.697 .531 9.277 .017 8.128 .144 6.881 .37 5.743 1.119 5.007 2.175 3.6 1.089 1.949 .002 0 0M-.211 3.458C-.464 3.458-.718 3.391-.939 3.264-1.576 2.807-1.786 1.943-1.4 1.269-1.239 .945-.918 .729-.444 .611-.321 .6-.159 .592 0 .592 1.879 .592 3.513 1.752 4.897 2.839L5.16 3.046 5.332 2.758C5.968 1.699 7.046 .94 8.216 .728 8.285 .72 8.377 .716 8.471 .716 9.297 .716 10.21 1.107 10.384 1.98 10.474 2.614 10.11 3.301 9.514 3.599 9.146 3.744 8.674 3.725 8.043 3.475 7.901 3.417 7.84 3.216 7.771 2.937 7.698 2.643 7.586 2.197 7.133 2.197 6.798 2.197 6.272 2.472 6.075 2.842 5.963 3.05 5.968 3.273 6.089 3.456 7.048 4.894 8.292 5.907 9.494 6.885 10.048 7.335 10.62 7.802 11.156 8.302L11.358 8.491 11.561 8.302C12.078 7.82 12.654 7.368 13.21 6.928 14.49 5.922 15.813 4.88 16.635 3.332 16.68 3.262 16.726 3.137 16.655 2.965 16.534 2.671 16.032 2.226 15.621 2.198 15.388 2.149 15.234 2.235 15.163 2.307 15.022 2.451 15.028 2.645 15.032 2.814 15.035 2.931 15.037 3.062 14.995 3.128 14.808 3.495 14.447 3.585 14.028 3.69 13.307 3.87 12.524 3.316 12.329 2.535 12.245 2.193 12.314 1.82 12.517 1.515 12.933 .982 13.473 .704 14.113 .704 15.379 .704 16.746 1.766 17.39 2.766L17.566 3.042 17.823 2.837C19.078 1.832 20.732 .679 22.396 .679 22.847 .68 23.281 .766 23.688 .939 23.981 1.064 24.215 1.347 24.312 1.698 24.419 2.076 24.353 2.47 24.133 2.778 23.861 3.186 23.398 3.425 22.89 3.425 22.38 3.425 21.918 3.186 21.651 2.786L21.52 2.59 21.302 2.673C20.443 2.995 19.39 3.481 18.865 4.401 18.665 4.702 18.751 5.187 18.922 5.506 19.087 5.816 19.283 5.882 19.418 5.882 19.48 5.882 19.541 5.868 19.597 5.839 20.011 5.577 20.429 5.447 20.831 5.447 21.551 5.447 22.085 5.863 22.261 6.56 22.347 6.91 22.271 7.28 22.046 7.605 21.826 7.924 21.482 8.163 21.105 8.257 21.046 8.264 20.958 8.27 20.868 8.27 20.215 8.27 19.546 7.954 19.119 7.442 18.844 7.11 18.717 6.709 18.581 6.283 18.462 5.911 18.341 5.527 18.111 5.183L17.919 4.894 12.64 9.795 12.867 10.012C18.583 15.508 26.241 17.455 32.506 18.021 31.703 18.088 30.896 18.121 30.09 18.121 23.148 18.121 16.604 15.736 11.667 11.404L11.489 11.247 11.297 11.388C8.713 13.302 5.233 15.651 1.228 16.823-2.503 17.915-6.224 18.323-9.827 18.025-3.556 17.464 4.123 15.52 9.85 10.012L10.076 9.795 4.798 4.894 4.605 5.183C4.376 5.527 4.254 5.911 4.135 6.283 4 6.709 3.873 7.11 3.597 7.442 3.211 7.826 2.808 8.037 2.252 8.261 1.399 8.44 .644 7.952 .458 7.11 .369 6.483 .734 5.795 1.329 5.496 1.412 5.473 1.537 5.452 1.673 5.452 2.065 5.452 2.461 5.616 2.842 5.773L3.028 5.85C3.097 5.873 3.151 5.882 3.205 5.882 3.438 5.882 3.657 5.722 3.807 5.443 3.97 5.137 4.045 4.689 3.841 4.384 3.325 3.481 2.272 2.995 1.415 2.673L1.202 2.593 1.071 2.778C.767 3.203 .289 3.458-.211 3.458" fill="#849239"/>
<path transform="matrix(1,0,0,-1,303.9889,71.851398)" d="M0 0 .738-.546 .211 .206C-3.214 5.104-7.046 5.239-8.26 5.139-8.013 5.404-7.581 5.791-6.984 6.019L-6.558 6.182-6.997 6.304C-7.901 6.552-9.202 6.764-10.312 5.85-10.478 6.772-10.9 7.771-11.159 7.955-11.235 8.008-11.3 8.008-11.343 7.999-11.642 7.931-12.151 7.153-12.393 5.847-13.173 6.469-14.504 6.762-15.612 6.208L-15.94 6.045-15.59 5.931C-15.583 5.929-14.852 5.689-14.422 5.046-19.415 4.925-21.234 2.48-22.701 .508-22.808 .363-22.914 .221-23.021 .083L-22.799-.117C-20.754 1.784-17.6 2.422-16.082 2.032-17.896 1.309-21.399-.838-22.59-6.844L-22.745-7.633-22.315-6.954C-20.319-3.791-18.367-1.876-16.051-.822-17.549-3.093-19.612-7.027-18.811-10.554L-18.662-11.21-18.519-10.554C-17.757-7.07-15.715-4.17-14.362-2.862-15.453-6.72-15.023-10.454-14.466-11.962L-14.221-12.627-14.176-11.919C-13.979-8.713-13.098-5.289-12.43-3.629L-11.972-6.807-12.26-6.892-12.055-11.258H-12.419L-12.086-15.741-12.484-15.83-12.47-15.962C-12.468-15.992-12.182-18.785-12.081-20.349-12.608-20.638-13.142-21.168-13.301-21.331V-21.63H-9.384V-21.363L-9.368-21.331C-9.759-20.851-10.338-20.515-10.563-20.394L-10.139-15.706-10.556-15.739-10.256-11.143-10.559-11.189-10.355-6.831H-10.695C-10.631-6.441-10.474-5.406-10.307-3.613-9.456-5.052-8.73-8.046-8.335-11.797L-8.218-12.907-8.039-11.805C-7.302-7.271-8.004-3.788-8.31-2.588-7.147-3.724-4.822-7.698-4.062-10.56L-3.834-11.417-3.768-10.532C-3.484-6.714-4.353-3.841-6.759-.72-5.778-1.004-4.573-1.827-3.314-3.079-2.133-4.254-.977-5.754-.37-6.9L-.011-7.576-.089-6.815C-.561-2.165-4.046 1.114-6.53 2.103-4.293 2.52-1.017 .754 0 0" fill="#849239"/>
</g>
</g>
</svg>
